<svg xmlns="http://www.w3.org/2000/svg" viewBox="2.5 25 79.7 26.8">
  <path fill="#4d6fd7" d="M14.245 34.941 2.812 41.366v2.003l11.434 6.425V46.928L5.54 42.333l8.705-4.56Zm17.272 3.074c-.345-3.765-2.521-4.94-5.872-4.94-2.038 0-3.972.691-5.492 1.935V25.27l-3.04.345v25.907h3.04V37.497c1.209-1.347 2.625-2.003 4.318-2.003 2.832 0 4.076 1.312 4.076 4.974v11.054h3.04V40.813c0-1.174 0-2.003-.07-2.798Zm12.402 11.088c-.864.311-1.486.415-2.073.415-2.107 0-2.694-.864-2.694-3.834v-9.845h4.87l.312-2.28h-5.182v-4.49l-3.04.483v4.007h-2.59v2.28h2.59v9.672c0 .967 0 1.9.07 2.832.172 2.073 1.45 3.662 4.318 3.662 1.623 0 2.867-.38 3.972-.933Z"/>
  <path fill="#77b6e1" d="M60.95 38.016c-.31-3.766-2.522-4.94-5.872-4.94-2.038 0-3.972.691-5.492 1.934v-1.796l-3.04.346v17.962h3.04V37.497c1.209-1.347 2.625-2.003 4.318-2.003 2.832 0 4.076 1.312 4.076 4.974v11.054h3.04V40.813c0-1.174 0-2.003-.07-2.797Z"/>
  <path fill="#4d6fd7" d="M64.509 51.522h3.04V25.27l-3.04.345Zm5.908-16.58v2.867l8.705 4.56-8.705 4.594v2.832L81.85 43.37v-2.004Z"/>
</svg>
